<?xml version="1.0" encoding="iso-8859-1"?>
<!-- Generator: Adobe Illustrator 19.0.0, SVG Export Plug-In . SVG Version: 6.00 Build 0)  -->
<svg xmlns="http://www.w3.org/2000/svg" xmlns:xlink="http://www.w3.org/1999/xlink" version="1.1" id="Capa_1" x="0px" y="0px" viewBox="0 0 391.846 391.846" style="enable-background:new 0 0 391.846 391.846;" xml:space="preserve" width="34px" height="20px">
<g>
	<g>
		<path d="M383.965,191.642c-0.694-1.971-2.133-3.592-4.007-4.516L19.079,0.886c-3.93-2.019-8.753-0.469-10.771,3.461    C7.437,6.041,7.2,7.991,7.639,9.846l67.28,282.48c1.023,4.298,5.337,6.953,9.636,5.929c0.204-0.048,0.405-0.105,0.604-0.169    l145.44-48l-12.8-12.64l-136-134.48c-2.531-3.622-1.647-8.609,1.975-11.14c2.804-1.96,6.544-1.919,9.305,0.1l141.84,140.32    l12.8,12.64l131.36-43.04C383.246,200.377,385.434,195.809,383.965,191.642z" fill="#91DC5A"/>
	</g>
</g>
<g>
	<g>
		<path d="M241.006,259.538c-0.978-0.049-1.957,0.083-2.887,0.387l-70.32,23.04c-4.242,1.237-6.677,5.678-5.441,9.92    c0.318,1.089,0.863,2.098,1.601,2.96l70.32,92.8c1.494,1.992,3.83,3.175,6.32,3.2c4.418,0,8-3.582,8-8v-115.92    C248.818,263.513,245.419,259.758,241.006,259.538z" fill="#04bfbf"/>
	</g>
</g>
<g>
</g>
<g>
</g>
<g>
</g>
<g>
</g>
<g>
</g>
<g>
</g>
<g>
</g>
<g>
</g>
<g>
</g>
<g>
</g>
<g>
</g>
<g>
</g>
<g>
</g>
<g>
</g>
<g>
</g>
</svg>
